<?xml version="1.0" encoding="UTF-8" standalone="no"?>
<!-- Created with Inkscape (http://www.inkscape.org/) -->

<svg
   width="57.803246mm"
   height="31.592575mm"
   viewBox="0 0 57.803246 31.592575"
   version="1.1"
   id="svg5"
   inkscape:version="1.3.2 (091e20e, 2023-11-25, custom)"
   sodipodi:docname="logobps.svg"
   xmlns:inkscape="http://www.inkscape.org/namespaces/inkscape"
   xmlns:sodipodi="http://sodipodi.sourceforge.net/DTD/sodipodi-0.dtd"
   xmlns="http://www.w3.org/2000/svg"
   xmlns:svg="http://www.w3.org/2000/svg">
  <sodipodi:namedview
     id="namedview7"
     pagecolor="#ffffff"
     bordercolor="#666666"
     borderopacity="1.0"
     inkscape:pageshadow="2"
     inkscape:pageopacity="0.0"
     inkscape:pagecheckerboard="0"
     inkscape:document-units="mm"
     showgrid="false"
     fit-margin-top="0"
     fit-margin-left="0"
     fit-margin-right="0"
     fit-margin-bottom="0"
     inkscape:zoom="2"
     inkscape:cx="113.5"
     inkscape:cy="162.75"
     inkscape:window-width="1920"
     inkscape:window-height="1009"
     inkscape:window-x="-8"
     inkscape:window-y="-8"
     inkscape:window-maximized="1"
     inkscape:current-layer="g284372"
     inkscape:showpageshadow="2"
     inkscape:deskcolor="#d1d1d1" />
  <defs
     id="defs2" />
  <g
     inkscape:label="Layer 1"
     inkscape:groupmode="layer"
     id="layer1"
     transform="translate(219.06697,-329.73496)">
    <g
       id="g284374"
       transform="matrix(1.3497525,0,0,1.3497525,-921.46361,170.42139)">
      <g
         id="g284372">
        <g
           id="g284346"
           transform="matrix(1.3815462,0,0,1.3815462,-495.52096,-453.58202)"
           inkscape:export-filename="D:\0-Ryan WJ\7400\2022\3 - Humas\2022xxxx Thumbnail Rilis\20221107.png"
           inkscape:export-xdpi="180"
           inkscape:export-ydpi="180"
           style="display:inline;fill:#000000">
          <g
             id="g284344"
             transform="matrix(0.80724217,0,0,0.80724217,976.65391,452.15298)"
             inkscape:export-filename="D:\0-Ryan WJ\7400\2022\9 - Regsosek\Testimoni HSN Regsosek\header.png"
             inkscape:export-xdpi="300"
             inkscape:export-ydpi="300"
             style="fill:#000000">
            <g
               style="fill:#000000;stroke-width:1.13337"
               transform="matrix(0.85913878,0,0,0.85913878,-292.31616,-287.33257)"
               id="g284342"
               inkscape:export-filename="D:\0-Ryan WJ\7400\2022\3 - Humas\Iklan Media\HUTRI4.png"
               inkscape:export-xdpi="300"
               inkscape:export-ydpi="300">
              <path
                 inkscape:export-ydpi="300"
                 inkscape:export-xdpi="300"
                 inkscape:connector-curvature="0"
                 style="fill:#0093dd;fill-opacity:1;fill-rule:evenodd;stroke:none;stroke-width:0.373621"
                 d="m -3.0383945,279.06871 c -0.2308,-3e-5 -0.3626,0.099 -0.42851,0.29678 l -1.18727,4.8164 c 0,0.19809 0.0662,0.29675 0.26401,0.29696 l 0.5769,-2e-5 c -2.70392,1.93736 -4.11886,4.23616 -3.44685,6.10322 1.05549,2.93608 6.89379003,3.72769 13.02865,1.74831 2.308791,-0.72575 4.3207605,-1.74826 5.9039605,-2.90287 -1.418291,0.89072 -3.0676805,1.6824 -4.9477115,2.27621 -6.03585897,1.94638 -11.807999,1.15477 -12.863449,-1.74829 -0.61345,-1.66886 0.4912,-3.68445 2.69833,-5.47656 h 2.54614003 c 0.19777,0 0.32994,0.0989 0.29672,0.32978 l -0.79166003,3.23326 c -0.16499,0.65977 -0.92358,1.02248 -1.64921,1.22042 -0.0661,0 -0.0989,0.16515 1e-5,0.16507 h 4.45276 c 0.23079,0 0.39589,-0.13168 0.49485,-0.36274 l 1.15435,-4.81693 c 0.033,-0.13176 -0.0662,-0.23042 -0.23094,-0.23063 h -3.66107997 c -0.13207,0 -0.23049003,-0.0332 -0.19757003,-0.19799 l 1.08797003,-4.48659 c 0.033,-0.1651 -0.0985,-0.26408 -0.23031,-0.26398 z"
                 id="path284336" />
              <path
                 inkscape:export-ydpi="300"
                 inkscape:export-xdpi="300"
                 inkscape:connector-curvature="0"
                 style="fill:#eb891b;fill-opacity:1;fill-rule:evenodd;stroke:none;stroke-width:0.373621"
                 d="m 5.3393855,279.06871 c -0.23079,-3e-5 -0.42843,0.13168 -0.49433,0.39568 l -0.17149,0.7103 c -1.06011,0.18246 -2.15458,0.44908 -3.25903,0.80748 -1.38529997,0.42889 -2.67138,0.98984 -3.7928,1.61666 0.85761,-0.42886 1.78117003,-0.79182 2.77065003,-1.08873 1.43189997,-0.46493 2.84561997,-0.78 4.18997997,-0.9565 l -0.89208,3.69419 c -0.033,0.16513 0.0662,0.23109 0.23095,0.23098 h 3.49648 c 0.26381,0 0.36272,0.19818 0.329739,0.39622 l -1.055589,4.32141 c -1.9e-5,0.16507 0.0989,0.23106 0.230931,0.23096 l 2.869408,-3e-5 c 0.2308025,0.0328 0.3631525,-0.0659 0.4290225,-0.29678 l 1.1873,-4.78343 c 0.0333,-0.19778 -0.0989,-0.32983 -0.29672,-0.32983 H 7.6488045 c -0.198128,0 -0.32984,-0.13251 -0.26403,-0.33031 l 0.758232,-3.23273 c 0.003,-0.0132 0.01029,-0.023 0.0131,-0.0333 2.8568705,0.19886 4.9851395,1.1952 5.5925595,2.87052 0.692671,1.88042 -0.725588,4.18975 -3.3972,6.13611 3.23232,-2.04531 5.01331,-4.61865 4.254741,-6.66404 -0.64593,-1.76188 -2.98767,-2.76905 -6.0809615,-2.87589 0.32671,-0.29704 0.794692,-0.50381 1.26551,-0.65365 0.0661,0 0.0662,-0.16512 -0.0332,-0.16505 z"
                 id="path284338" />
              <path
                 inkscape:export-ydpi="300"
                 inkscape:export-xdpi="300"
                 inkscape:connector-curvature="0"
                 style="fill:#68b92e;fill-opacity:1;fill-rule:evenodd;stroke:none;stroke-width:0.373621"
                 d="m -2.8072345,295.36548 h 2.86947003 c 0.16478,0 0.32984,-0.0662 0.36283,-0.26403 l 1.08842997,-4.48657 c 0.0659,-0.1651 0.16495,-0.19788 0.264,-0.19793 h 3.66112 c 0.19777,0 0.29678,-0.0659 0.3628,-0.23106 l 1.121441,-4.6845 c 0.0658,-0.29686 -0.0661,-0.39584 -0.29678,-0.39587 h -2.737561 c -0.26382,-0.0332 -0.42877,0.0659 -0.46174,0.32991 l -1.02247,4.18962 c -0.0988,0.23085 -0.26393,0.32991 -0.42882,0.32994 h -3.49617 c -0.19778,0 -0.36284,0.0989 -0.39583,0.29673 l -1.15439,4.8165 c -0.0659,0.1978 0.0328,0.29678 0.26402,0.29697 z"
                 id="path284340" />
            </g>
          </g>
        </g>
        <text
           xml:space="preserve"
           style="font-size:2.87501px;font-family:Raleway;-inkscape-font-specification:Raleway;fill:#1a1a1a;stroke-width:0.196024"
           x="520.53796"
           y="137.73596"
           id="text1"><tspan
             sodipodi:role="line"
             id="tspan1"
             style="font-style:italic;font-variant:normal;font-weight:bold;font-stretch:normal;font-size:2.87501px;font-family:Arial;-inkscape-font-specification:'Arial Bold Italic';fill:#f9f9f9;stroke-width:0.196024"
             x="520.53796"
             y="137.73596">BADAN PUSAT STATISTIK</tspan><tspan
             sodipodi:role="line"
             style="font-style:italic;font-variant:normal;font-weight:bold;font-stretch:normal;font-size:2.87501px;font-family:Arial;-inkscape-font-specification:'Arial Bold Italic';fill:#f9f9f9;stroke-width:0.196024"
             x="520.53796"
             y="141.40138"
             id="tspan2">PROVINSI SULAWESI BARAT</tspan></text>
      </g>
    </g>
  </g>
</svg>
